<svg width="172" height="172" viewBox="0 0 172 172" fill="none" xmlns="http://www.w3.org/2000/svg">
<g clip-path="url(#clip0)">
<path d="M112.816 61.5315H94.577V119.785H112.816V61.5315Z" fill="url(#paint0_linear)"/>
<path d="M100.839 51.425H104.912C106.271 51.425 107.372 50.3238 107.372 48.965V43.4651C107.372 42.1066 106.271 41.0052 104.912 41.0052H100.839V51.425Z" fill="url(#paint1_linear)"/>
<path d="M96.7793 35.9692H13.7761V119.785H96.7793V35.9692Z" fill="url(#paint2_linear)"/>
<path d="M96.7793 103.022H13.7761V119.785H96.7793V103.022Z" fill="url(#paint3_linear)"/>
<path d="M96.7793 86.2587H13.7761V103.022H96.7793V86.2587Z" fill="url(#paint4_linear)"/>
<path d="M96.7793 69.4958H13.7761V86.259H96.7793V69.4958Z" fill="url(#paint5_linear)"/>
<path d="M96.7793 52.7325H13.7761V69.4957H96.7793V52.7325Z" fill="url(#paint6_linear)"/>
<path d="M96.7793 35.9692H13.7761V52.7325H96.7793V35.9692Z" fill="url(#paint7_linear)"/>
<path d="M103.697 35.8981V119.785H96.7792V35.8981C96.7792 34.9457 97.5511 34.1737 98.5035 34.1737H101.973C102.925 34.1737 103.697 34.9457 103.697 35.8981Z" fill="url(#paint8_linear)"/>
<path d="M13.7754 35.8981V119.785H6.85728V35.8981C6.85728 34.9457 7.62926 34.1737 8.58167 34.1737H12.051C13.0034 34.1737 13.7754 34.9457 13.7754 35.8981Z" fill="url(#paint9_linear)"/>
<path d="M116.638 51.425H124.818C141.92 51.425 156.13 63.8059 158.976 80.094C159.371 82.3539 160.872 84.2658 162.957 85.2216C165.453 86.3652 167.054 88.8589 167.054 91.6042V119.785H159.497H153.339H107.372V60.6904C107.372 55.5732 111.521 51.425 116.638 51.425Z" fill="url(#paint10_linear)"/>
<path d="M166.988 90.6581C167.03 90.9691 167.054 91.2847 167.054 91.6041V119.785H159.497H153.339H107.372V90.6578H166.988V90.6581Z" fill="url(#paint11_linear)"/>
<path d="M115.927 83.594H150.942C150.942 70.1045 140.007 59.169 126.517 59.169H122.452C118.848 59.169 115.927 62.0907 115.927 65.6949V83.594Z" fill="url(#paint12_linear)"/>
<path d="M153.574 90.3496C156.129 90.3496 158.201 88.2778 158.201 85.7224V84.279C158.201 81.7236 156.129 79.6519 153.574 79.6519C152.887 79.6519 152.33 80.209 152.33 80.8963V89.1048C152.33 89.7924 152.887 90.3496 153.574 90.3496Z" fill="url(#paint13_linear)"/>
<path d="M161.298 112.325H11.6356V120.766H161.298V112.325Z" fill="url(#paint14_linear)"/>
<path d="M132.208 137.826C122.244 137.826 114.167 129.749 114.167 119.785C114.167 109.821 122.244 101.744 132.208 101.744C142.172 101.744 150.249 109.821 150.249 119.785C150.249 129.749 142.172 137.826 132.208 137.826Z" fill="url(#paint15_radial)"/>
<path d="M132.208 131.454C125.763 131.454 120.539 126.229 120.539 119.785C120.539 113.341 125.763 108.117 132.208 108.117C138.652 108.117 143.876 113.341 143.876 119.785C143.876 126.229 138.652 131.454 132.208 131.454Z" fill="url(#paint16_linear)"/>
<path d="M132.208 130.388C126.352 130.388 121.605 125.641 121.605 119.785C121.605 113.929 126.352 109.182 132.208 109.182C138.063 109.182 142.811 113.929 142.811 119.785C142.811 125.641 138.063 130.388 132.208 130.388Z" fill="url(#paint17_linear)"/>
<path d="M132.208 125.946C128.806 125.946 126.047 123.188 126.047 119.785C126.047 116.383 128.806 113.624 132.208 113.624C135.611 113.624 138.369 116.383 138.369 119.785C138.369 123.188 135.611 125.946 132.208 125.946Z" fill="url(#paint18_linear)"/>
<path d="M132.207 123.244C130.297 123.244 128.748 121.695 128.748 119.785C128.748 117.875 130.297 116.326 132.207 116.326C134.117 116.326 135.666 117.875 135.666 119.785C135.666 121.695 134.117 123.244 132.207 123.244Z" fill="url(#paint19_linear)"/>
<path d="M132.208 112.679C131.531 112.679 130.981 112.13 130.981 111.453C130.981 110.775 131.531 110.226 132.208 110.226C132.885 110.226 133.435 110.775 133.435 111.453C133.435 112.13 132.885 112.679 132.208 112.679Z" fill="url(#paint20_linear)"/>
<path d="M132.208 129.344C131.531 129.344 130.981 128.795 130.981 128.117C130.981 127.44 131.531 126.891 132.208 126.891C132.885 126.891 133.435 127.44 133.435 128.117C133.435 128.795 132.885 129.344 132.208 129.344Z" fill="url(#paint21_linear)"/>
<path d="M123.875 121.012C123.198 121.012 122.648 120.463 122.648 119.785C122.648 119.108 123.198 118.559 123.875 118.559C124.552 118.559 125.102 119.108 125.102 119.785C125.102 120.463 124.552 121.012 123.875 121.012Z" fill="url(#paint22_linear)"/>
<path d="M140.54 121.012C139.863 121.012 139.313 120.463 139.313 119.785C139.313 119.108 139.863 118.559 140.54 118.559C141.217 118.559 141.767 119.108 141.767 119.785C141.767 120.463 141.217 121.012 140.54 121.012Z" fill="url(#paint23_linear)"/>
<path d="M126.315 115.12C125.638 115.12 125.089 114.57 125.089 113.893C125.089 113.216 125.638 112.666 126.315 112.666C126.993 112.666 127.542 113.216 127.542 113.893C127.542 114.57 126.993 115.12 126.315 115.12Z" fill="url(#paint24_linear)"/>
<path d="M138.1 126.904C137.422 126.904 136.873 126.354 136.873 125.677C136.873 125 137.422 124.45 138.1 124.45C138.777 124.45 139.326 125 139.326 125.677C139.326 126.354 138.777 126.904 138.1 126.904Z" fill="url(#paint25_linear)"/>
<path d="M138.1 115.12C137.422 115.12 136.873 114.57 136.873 113.893C136.873 113.216 137.422 112.666 138.1 112.666C138.777 112.666 139.326 113.216 139.326 113.893C139.326 114.57 138.777 115.12 138.1 115.12Z" fill="url(#paint26_linear)"/>
<path d="M126.315 126.904C125.638 126.904 125.089 126.354 125.089 125.677C125.089 125 125.638 124.45 126.315 124.45C126.993 124.45 127.542 125 127.542 125.677C127.542 126.354 126.993 126.904 126.315 126.904Z" fill="url(#paint27_linear)"/>
<path d="M40.0605 137.826C30.0966 137.826 22.0193 129.749 22.0193 119.785C22.0193 109.821 30.0966 101.744 40.0605 101.744C50.0243 101.744 58.1016 109.821 58.1016 119.785C58.1016 129.749 50.0243 137.826 40.0605 137.826Z" fill="url(#paint28_radial)"/>
<path d="M40.0612 131.454C33.6169 131.454 28.3928 126.229 28.3928 119.785C28.3928 113.341 33.6169 108.117 40.0612 108.117C46.5054 108.117 51.7295 113.341 51.7295 119.785C51.7295 126.229 46.5054 131.454 40.0612 131.454Z" fill="url(#paint29_linear)"/>
<path d="M40.0611 130.388C34.2053 130.388 29.4581 125.641 29.4581 119.785C29.4581 113.929 34.2053 109.182 40.0611 109.182C45.917 109.182 50.6641 113.929 50.6641 119.785C50.6641 125.641 45.917 130.388 40.0611 130.388Z" fill="url(#paint30_linear)"/>
<path d="M40.0607 125.946C36.6581 125.946 33.8997 123.188 33.8997 119.785C33.8997 116.383 36.6581 113.624 40.0607 113.624C43.4633 113.624 46.2217 116.383 46.2217 119.785C46.2217 123.188 43.4633 125.946 40.0607 125.946Z" fill="url(#paint31_linear)"/>
<path d="M40.0607 125.946C36.6581 125.946 33.8997 123.188 33.8997 119.785C33.8997 116.383 36.6581 113.624 40.0607 113.624C43.4633 113.624 46.2217 116.383 46.2217 119.785C46.2217 123.188 43.4633 125.946 40.0607 125.946Z" fill="url(#paint32_linear)"/>
<path d="M40.0616 123.244C38.1513 123.244 36.6027 121.695 36.6027 119.785C36.6027 117.875 38.1513 116.326 40.0616 116.326C41.9719 116.326 43.5205 117.875 43.5205 119.785C43.5205 121.695 41.9719 123.244 40.0616 123.244Z" fill="url(#paint33_linear)"/>
<path d="M40.0605 112.679C39.3831 112.679 38.8339 112.13 38.8339 111.453C38.8339 110.775 39.3831 110.226 40.0605 110.226C40.7379 110.226 41.2871 110.775 41.2871 111.453C41.2871 112.13 40.7379 112.679 40.0605 112.679Z" fill="url(#paint34_linear)"/>
<path d="M40.0605 129.344C39.3831 129.344 38.8339 128.795 38.8339 128.117C38.8339 127.44 39.3831 126.891 40.0605 126.891C40.7379 126.891 41.2871 127.44 41.2871 128.117C41.2871 128.795 40.7379 129.344 40.0605 129.344Z" fill="url(#paint35_linear)"/>
<path d="M31.7285 121.012C31.0511 121.012 30.5019 120.463 30.5019 119.785C30.5019 119.108 31.0511 118.559 31.7285 118.559C32.4059 118.559 32.9551 119.108 32.9551 119.785C32.9551 120.463 32.4059 121.012 31.7285 121.012Z" fill="url(#paint36_linear)"/>
<path d="M48.3935 121.012C47.7161 121.012 47.1669 120.463 47.1669 119.785C47.1669 119.108 47.7161 118.559 48.3935 118.559C49.071 118.559 49.6201 119.108 49.6201 119.785C49.6201 120.463 49.071 121.012 48.3935 121.012Z" fill="url(#paint37_linear)"/>
<path d="M34.1689 115.12C33.4915 115.12 32.9423 114.57 32.9423 113.893C32.9423 113.216 33.4915 112.666 34.1689 112.666C34.8463 112.666 35.3955 113.216 35.3955 113.893C35.3955 114.57 34.8463 115.12 34.1689 115.12Z" fill="url(#paint38_linear)"/>
<path d="M45.9531 126.904C45.2757 126.904 44.7265 126.354 44.7265 125.677C44.7265 125 45.2757 124.45 45.9531 124.45C46.6305 124.45 47.1797 125 47.1797 125.677C47.1797 126.354 46.6305 126.904 45.9531 126.904Z" fill="url(#paint39_linear)"/>
<path d="M45.9531 115.12C45.2757 115.12 44.7265 114.57 44.7265 113.893C44.7265 113.216 45.2757 112.666 45.9531 112.666C46.6305 112.666 47.1797 113.216 47.1797 113.893C47.1797 114.57 46.6305 115.12 45.9531 115.12Z" fill="url(#paint40_linear)"/>
<path d="M34.1689 126.904C33.4915 126.904 32.9423 126.354 32.9423 125.677C32.9423 125 33.4915 124.45 34.1689 124.45C34.8463 124.45 35.3955 125 35.3955 125.677C35.3955 126.354 34.8463 126.904 34.1689 126.904Z" fill="url(#paint41_linear)"/>
<path d="M6.85745 99.9435H9.76459C11.6826 99.9435 13.2373 101.498 13.2373 103.416V110.226H6.85745V99.9435Z" fill="url(#paint42_linear)"/>
<path d="M162.957 85.2216C165.453 86.3653 167.054 88.8589 167.054 91.6042V119.785H159.497H157.54V93.2075C157.54 89.8714 158.456 86.5997 160.189 83.7492L160.461 83.302C161.129 84.1104 161.978 84.7727 162.957 85.2216Z" fill="url(#paint43_linear)"/>
<path d="M157.72 90.6581H166.988V90.6585C167.009 90.8136 167.025 90.9694 167.036 91.1263C167.047 91.2848 167.054 91.4439 167.054 91.6041V119.785H159.497H157.54V93.2074C157.54 92.3515 157.601 91.4999 157.72 90.6581Z" fill="url(#paint44_linear)"/>
<path d="M164.417 99.9435H167.054V110.226H160.944V103.416C160.944 101.498 162.499 99.9435 164.417 99.9435Z" fill="url(#paint45_linear)"/>
<path d="M156.776 122.791H167.404C169.942 122.791 172 120.734 172 118.195V112.741C172 110.203 169.942 108.146 167.404 108.146H156.776C154.237 108.146 152.18 110.203 152.18 112.741V118.195C152.18 120.734 154.237 122.791 156.776 122.791Z" fill="url(#paint46_linear)"/>
<path d="M4.59599 122.791H9.82512C12.3633 122.791 14.4209 120.734 14.4209 118.195V112.741C14.4209 110.203 12.3633 108.146 9.82512 108.146H4.59599C2.05781 108.146 0.000213623 110.203 0.000213623 112.741V118.195C0.000213623 120.734 2.05781 122.791 4.59599 122.791Z" fill="url(#paint47_linear)"/>
</g>
<defs>
<linearGradient id="paint0_linear" x1="103.697" y1="47.1337" x2="103.697" y2="117.736" gradientUnits="userSpaceOnUse">
<stop stop-color="#4F4A72"/>
<stop offset="1" stop-color="#3B395F"/>
</linearGradient>
<linearGradient id="paint1_linear" x1="105.464" y1="42.5592" x2="101.754" y2="49.9788" gradientUnits="userSpaceOnUse">
<stop stop-color="#FFE548"/>
<stop offset="0.1758" stop-color="#FFDE50"/>
<stop offset="0.4446" stop-color="#FFCA65"/>
<stop offset="0.7709" stop-color="#FFAA87"/>
<stop offset="1" stop-color="#FF90A4"/>
</linearGradient>
<linearGradient id="paint2_linear" x1="66.1326" y1="52.1837" x2="42.4732" y2="108.186" gradientUnits="userSpaceOnUse">
<stop stop-color="#D4F7FF"/>
<stop offset="1" stop-color="#A2E3E9"/>
</linearGradient>
<linearGradient id="paint3_linear" x1="60.0104" y1="100.202" x2="49.6951" y2="124.617" gradientUnits="userSpaceOnUse">
<stop stop-color="#C7DFF8"/>
<stop offset="1" stop-color="#97BDE2"/>
</linearGradient>
<linearGradient id="paint4_linear" x1="60.0104" y1="83.4385" x2="49.6951" y2="107.854" gradientUnits="userSpaceOnUse">
<stop stop-color="#B5D5F5"/>
<stop offset="1" stop-color="#94BCE3"/>
</linearGradient>
<linearGradient id="paint5_linear" x1="60.0104" y1="66.6756" x2="49.6951" y2="91.0909" gradientUnits="userSpaceOnUse">
<stop stop-color="#B9D9F9"/>
<stop offset="1" stop-color="#83AED9"/>
</linearGradient>
<linearGradient id="paint6_linear" x1="60.0104" y1="49.9124" x2="49.6951" y2="74.3279" gradientUnits="userSpaceOnUse">
<stop stop-color="#C5DEF7"/>
<stop offset="1" stop-color="#7CB2E8"/>
</linearGradient>
<linearGradient id="paint7_linear" x1="60.0104" y1="33.1491" x2="49.6951" y2="57.5646" gradientUnits="userSpaceOnUse">
<stop stop-color="#A3C4E4"/>
<stop offset="1" stop-color="#A0C9F2"/>
</linearGradient>
<linearGradient id="paint8_linear" x1="108.411" y1="58.3208" x2="90.9072" y2="99.753" gradientUnits="userSpaceOnUse">
<stop stop-color="#B6D8FA"/>
<stop offset="1" stop-color="#A1C9F0"/>
</linearGradient>
<linearGradient id="paint9_linear" x1="18.4895" y1="58.3208" x2="0.985331" y2="99.7529" gradientUnits="userSpaceOnUse">
<stop stop-color="#BFD8F1"/>
<stop offset="1" stop-color="#9FC5EB"/>
</linearGradient>
<linearGradient id="paint10_linear" x1="149.263" y1="66.4925" x2="111.715" y2="136.866" gradientUnits="userSpaceOnUse">
<stop stop-color="#FF6C2F"/>
<stop offset="1" stop-color="white"/>
</linearGradient>
<linearGradient id="paint11_linear" x1="161.15" y1="76.4081" x2="126.399" y2="118.238" gradientUnits="userSpaceOnUse">
<stop stop-color="#FF6C2F"/>
<stop offset="1" stop-color="#D2C8C4"/>
</linearGradient>
<linearGradient id="paint12_linear" x1="134.045" y1="70.6057" x2="130.259" y2="94.0176" gradientUnits="userSpaceOnUse">
<stop stop-color="#768695"/>
<stop offset="1" stop-color="#3B395F"/>
</linearGradient>
<linearGradient id="paint13_linear" x1="155.265" y1="79.9601" x2="155.265" y2="88.954" gradientUnits="userSpaceOnUse">
<stop stop-color="#4E6276"/>
<stop offset="1" stop-color="#506478"/>
</linearGradient>
<linearGradient id="paint14_linear" x1="86.4667" y1="112.897" x2="86.4667" y2="123.586" gradientUnits="userSpaceOnUse">
<stop stop-color="#445B72"/>
<stop offset="1" stop-color="#374C62"/>
</linearGradient>
<radialGradient id="paint15_radial" cx="0" cy="0" r="1" gradientUnits="userSpaceOnUse" gradientTransform="translate(134.721 114.579) rotate(180) scale(22.4194)">
<stop stop-color="#0066CC"/>
<stop offset="0.1551" stop-color="#0066CC"/>
<stop offset="0.4019" stop-color="#446B92"/>
<stop offset="0.7073" stop-color="#44688C"/>
<stop offset="1" stop-color="#2D4761"/>
</radialGradient>
<linearGradient id="paint16_linear" x1="118.848" y1="133.145" x2="143.599" y2="108.394" gradientUnits="userSpaceOnUse">
<stop stop-color="#5283B4"/>
<stop offset="1" stop-color="#345372"/>
</linearGradient>
<linearGradient id="paint17_linear" x1="144.347" y1="107.645" x2="121.857" y2="130.136" gradientUnits="userSpaceOnUse">
<stop stop-color="#CDE4FC"/>
<stop offset="1" stop-color="#98BEE4"/>
</linearGradient>
<linearGradient id="paint18_linear" x1="125.154" y1="126.839" x2="138.223" y2="113.771" gradientUnits="userSpaceOnUse">
<stop stop-color="#B7D8FA"/>
<stop offset="1" stop-color="#A5C8EC"/>
</linearGradient>
<linearGradient id="paint19_linear" x1="132.925" y1="119.067" x2="129.276" y2="122.716" gradientUnits="userSpaceOnUse">
<stop stop-color="#52677C"/>
<stop offset="1" stop-color="#4C6278"/>
</linearGradient>
<linearGradient id="paint20_linear" x1="132.851" y1="110.809" x2="131.34" y2="112.321" gradientUnits="userSpaceOnUse">
<stop stop-color="#4F4A72"/>
<stop offset="1" stop-color="#3B395F"/>
</linearGradient>
<linearGradient id="paint21_linear" x1="132.851" y1="127.474" x2="131.34" y2="128.986" gradientUnits="userSpaceOnUse">
<stop stop-color="#4F4A72"/>
<stop offset="1" stop-color="#3B395F"/>
</linearGradient>
<linearGradient id="paint22_linear" x1="123.232" y1="119.142" x2="124.743" y2="120.654" gradientUnits="userSpaceOnUse">
<stop stop-color="#4F4A72"/>
<stop offset="1" stop-color="#3B395F"/>
</linearGradient>
<linearGradient id="paint23_linear" x1="139.897" y1="119.142" x2="141.408" y2="120.654" gradientUnits="userSpaceOnUse">
<stop stop-color="#4F4A72"/>
<stop offset="1" stop-color="#3B395F"/>
</linearGradient>
<linearGradient id="paint24_linear" x1="126.361" y1="112.983" x2="126.361" y2="115.121" gradientUnits="userSpaceOnUse">
<stop stop-color="#4F4A72"/>
<stop offset="1" stop-color="#3B395F"/>
</linearGradient>
<linearGradient id="paint25_linear" x1="138.143" y1="124.766" x2="138.143" y2="126.903" gradientUnits="userSpaceOnUse">
<stop stop-color="#4F4A72"/>
<stop offset="1" stop-color="#3B395F"/>
</linearGradient>
<linearGradient id="paint26_linear" x1="138.143" y1="112.983" x2="138.143" y2="115.121" gradientUnits="userSpaceOnUse">
<stop stop-color="#4F4A72"/>
<stop offset="1" stop-color="#3B395F"/>
</linearGradient>
<linearGradient id="paint27_linear" x1="126.36" y1="124.765" x2="126.361" y2="126.903" gradientUnits="userSpaceOnUse">
<stop stop-color="#4F4A72"/>
<stop offset="1" stop-color="#3B395F"/>
</linearGradient>
<radialGradient id="paint28_radial" cx="0" cy="0" r="1" gradientUnits="userSpaceOnUse" gradientTransform="translate(42.5737 114.579) rotate(180) scale(22.4194)">
<stop stop-color="#FF6C2F"/>
<stop offset="0.0001" stop-color="#0066CC"/>
<stop offset="0.1551" stop-color="#0066CC"/>
<stop offset="0.4019" stop-color="#4C759E"/>
<stop offset="0.7073" stop-color="#42698F"/>
<stop offset="1" stop-color="#355473"/>
</radialGradient>
<linearGradient id="paint29_linear" x1="26.7011" y1="133.145" x2="51.4523" y2="108.394" gradientUnits="userSpaceOnUse">
<stop stop-color="#4F7BA7"/>
<stop offset="1" stop-color="#335170"/>
</linearGradient>
<linearGradient id="paint30_linear" x1="52.2006" y1="107.645" x2="29.7101" y2="130.136" gradientUnits="userSpaceOnUse">
<stop stop-color="#CDE4FC"/>
<stop offset="1" stop-color="#98BEE4"/>
</linearGradient>
<linearGradient id="paint31_linear" x1="33.0063" y1="126.839" x2="46.0753" y2="113.771" gradientUnits="userSpaceOnUse">
<stop stop-color="#D4F7FF"/>
<stop offset="1" stop-color="#A2E3E9"/>
</linearGradient>
<linearGradient id="paint32_linear" x1="33.0067" y1="126.839" x2="46.0753" y2="113.771" gradientUnits="userSpaceOnUse">
<stop stop-color="#B7D8FA"/>
<stop offset="1" stop-color="#A5C8EC"/>
</linearGradient>
<linearGradient id="paint33_linear" x1="40.7796" y1="119.067" x2="37.1309" y2="122.716" gradientUnits="userSpaceOnUse">
<stop stop-color="#4F657A"/>
<stop offset="1" stop-color="#2F5376"/>
</linearGradient>
<linearGradient id="paint34_linear" x1="40.7037" y1="110.809" x2="39.1921" y2="112.321" gradientUnits="userSpaceOnUse">
<stop stop-color="#4F4A72"/>
<stop offset="1" stop-color="#3B395F"/>
</linearGradient>
<linearGradient id="paint35_linear" x1="40.7037" y1="127.474" x2="39.1921" y2="128.986" gradientUnits="userSpaceOnUse">
<stop stop-color="#4F4A72"/>
<stop offset="1" stop-color="#3B395F"/>
</linearGradient>
<linearGradient id="paint36_linear" x1="31.085" y1="119.142" x2="32.5969" y2="120.654" gradientUnits="userSpaceOnUse">
<stop stop-color="#4F4A72"/>
<stop offset="1" stop-color="#3B395F"/>
</linearGradient>
<linearGradient id="paint37_linear" x1="47.7504" y1="119.142" x2="49.2619" y2="120.654" gradientUnits="userSpaceOnUse">
<stop stop-color="#4F4A72"/>
<stop offset="1" stop-color="#3B395F"/>
</linearGradient>
<linearGradient id="paint38_linear" x1="34.227" y1="112.983" x2="34.2272" y2="115.121" gradientUnits="userSpaceOnUse">
<stop stop-color="#4F4A72"/>
<stop offset="1" stop-color="#3B395F"/>
</linearGradient>
<linearGradient id="paint39_linear" x1="46.0094" y1="124.765" x2="46.0096" y2="126.903" gradientUnits="userSpaceOnUse">
<stop stop-color="#4F4A72"/>
<stop offset="1" stop-color="#3B395F"/>
</linearGradient>
<linearGradient id="paint40_linear" x1="46.0095" y1="112.983" x2="46.0095" y2="115.121" gradientUnits="userSpaceOnUse">
<stop stop-color="#4F4A72"/>
<stop offset="1" stop-color="#3B395F"/>
</linearGradient>
<linearGradient id="paint41_linear" x1="34.2271" y1="124.765" x2="34.2271" y2="126.903" gradientUnits="userSpaceOnUse">
<stop stop-color="#4F4A72"/>
<stop offset="1" stop-color="#3B395F"/>
</linearGradient>
<linearGradient id="paint42_linear" x1="13.7786" y1="100.594" x2="7.70801" y2="107.901" gradientUnits="userSpaceOnUse">
<stop stop-color="#FF4974"/>
<stop offset="0.2231" stop-color="#FB3F6C"/>
<stop offset="0.6075" stop-color="#F12357"/>
<stop offset="1" stop-color="#E4003D"/>
</linearGradient>
<linearGradient id="paint43_linear" x1="174.996" y1="88.9793" x2="156.896" y2="109.215" gradientUnits="userSpaceOnUse">
<stop stop-color="#FF6C2F"/>
<stop offset="1" stop-color="#FFD8C8"/>
</linearGradient>
<linearGradient id="paint44_linear" x1="176.734" y1="90.875" x2="160.995" y2="106.613" gradientUnits="userSpaceOnUse">
<stop stop-color="#FF6C2F"/>
<stop offset="1" stop-color="#FFAF8D"/>
</linearGradient>
<linearGradient id="paint45_linear" x1="164.899" y1="99.101" x2="163.315" y2="112.513" gradientUnits="userSpaceOnUse">
<stop stop-color="#FFE548"/>
<stop offset="0.1758" stop-color="#FFDE50"/>
<stop offset="0.4446" stop-color="#FFCA65"/>
<stop offset="0.7709" stop-color="#FFAA87"/>
<stop offset="1" stop-color="#FF90A4"/>
</linearGradient>
<linearGradient id="paint46_linear" x1="162.09" y1="108.123" x2="162.09" y2="118.686" gradientUnits="userSpaceOnUse">
<stop stop-color="#3870A7"/>
<stop offset="1" stop-color="#3B395F"/>
<stop offset="1" stop-color="#1E456C"/>
</linearGradient>
<linearGradient id="paint47_linear" x1="7.21072" y1="108.123" x2="7.21072" y2="118.686" gradientUnits="userSpaceOnUse">
<stop stop-color="#276EB5"/>
<stop offset="1" stop-color="#2D5379"/>
</linearGradient>
<clipPath id="clip0">
<rect width="172" height="172" fill="white" transform="matrix(-1 0 0 1 172 0)"/>
</clipPath>
</defs>
</svg>
