<svg width="172" height="172" viewBox="0 0 172 172" fill="none" xmlns="http://www.w3.org/2000/svg">
<path d="M13.5244 30.8392L159.007 30.8392C163.713 30.8392 167.532 34.6579 167.532 39.3637L167.532 131.476C167.532 136.181 163.713 140 159.007 140L13.5244 140C8.81894 140 5 136.181 5 131.476L5 39.3637C5 34.6579 8.8186 30.8392 13.5244 30.8392Z" fill="url(#paint0_linear)"/>
<rect opacity="0.3" x="20" y="46.8392" width="32" height="32" rx="4" fill="url(#paint1_linear)"/>
<rect opacity="0.3" x="20" y="85.8392" width="125" height="32" rx="4" fill="url(#paint2_linear)"/>
<rect opacity="0.3" x="60" y="52.8392" width="80" height="8" rx="2" fill="url(#paint3_linear)"/>
<rect opacity="0.3" x="60" y="64.8392" width="32" height="8" rx="2" fill="url(#paint4_linear)"/>
<path d="M153 31.8392L159.667 31.8392C164.267 31.8392 168 35.6172 168 40.273L168 131.405C168 136.061 164.267 139.839 159.667 139.839L153 139.839L153 31.8392Z" fill="url(#paint5_linear)"/>
<defs>
<linearGradient id="paint0_linear" x1="86.2677" y1="114.514" x2="86.2677" y2="-59.6074" gradientUnits="userSpaceOnUse">
<stop stop-color="#FF6C2F"/>
<stop offset="1" stop-color="#FF4B00"/>
</linearGradient>
<linearGradient id="paint1_linear" x1="20" y1="87.3392" x2="83.5" y2="31.8392" gradientUnits="userSpaceOnUse">
<stop stop-color="white"/>
<stop offset="1" stop-color="white" stop-opacity="0"/>
</linearGradient>
<linearGradient id="paint2_linear" x1="82.5" y1="85.8392" x2="82.5" y2="117.839" gradientUnits="userSpaceOnUse">
<stop stop-color="white"/>
<stop offset="1" stop-color="white" stop-opacity="0"/>
</linearGradient>
<linearGradient id="paint3_linear" x1="100" y1="52.8392" x2="131" y2="60.8392" gradientUnits="userSpaceOnUse">
<stop stop-color="white"/>
<stop offset="1" stop-color="white" stop-opacity="0"/>
</linearGradient>
<linearGradient id="paint4_linear" x1="64.5" y1="72.8392" x2="104" y2="64.8392" gradientUnits="userSpaceOnUse">
<stop stop-color="white"/>
<stop offset="1" stop-color="white" stop-opacity="0"/>
</linearGradient>
<linearGradient id="paint5_linear" x1="158.531" y1="85.8408" x2="169.513" y2="85.8408" gradientUnits="userSpaceOnUse">
<stop stop-color="#FF6C2F"/>
<stop offset="1" stop-color="#DA4000"/>
</linearGradient>
</defs>
</svg>
